HIERARCHY
ROOT SpineBase
{
  OFFSET 0.000000 0.000000 0.000000
  CHANNELS 6 Xposition Yposition Zposition Zrotation Xrotation Yrotation
  JOINT SpineMid
  {
    OFFSET -0.000000 33.043437 0.000000
    CHANNELS 3 Zrotation Xrotation Yrotation
    JOINT SpineShoulder
    {
      OFFSET 0.206492 24.543433 -0.837620
      CHANNELS 3 Zrotation Xrotation Yrotation
      JOINT Neck
      {
        OFFSET 0.155016 8.118144 -0.609358
        CHANNELS 3 Zrotation Xrotation Yrotation
        JOINT Head
        {
          OFFSET 6.834335 11.410398 5.313758
          CHANNELS 3 Zrotation Xrotation Yrotation
          End Site
          {
            OFFSET 0 0 0
          }
        }
      }
      JOINT ShoulderLeft
      {
        OFFSET -4.544902 -3.359220 -14.250980
        CHANNELS 3 Zrotation Xrotation Yrotation
        JOINT ElbowLeft
        {
          OFFSET -5.196530 -22.360442 -8.683278
          CHANNELS 3 Zrotation Xrotation Yrotation
          JOINT WristLeft
          {
            OFFSET 19.813085 -16.555358 7.271753
            CHANNELS 3 Zrotation Xrotation Yrotation
            JOINT HandLeft
            {
              OFFSET 3.899185 -0.746109 2.833035
              CHANNELS 3 Zrotation Xrotation Yrotation
              JOINT HandTipLeft
              {
                OFFSET 4.653511 -2.725180 1.930081
                CHANNELS 3 Zrotation Xrotation Yrotation
                End Site
                {
                  OFFSET 0 0 0
                }
              }
              JOINT ThumbLeft
              {
                OFFSET -3.656492 -1.893558 -1.910369
                CHANNELS 3 Zrotation Xrotation Yrotation
                End Site
                {
                  OFFSET 0 0 0
                }
              }
            }
          }
        }
      }
      JOINT ShoulderRight
      {
        OFFSET 5.272521 -7.333265 16.288654
        CHANNELS 3 Zrotation Xrotation Yrotation
        JOINT ElbowRight
        {
          OFFSET 2.959316 -22.864759 2.614236
          CHANNELS 3 Zrotation Xrotation Yrotation
          JOINT WristRight
          {
            OFFSET 9.832190 -11.559274 -25.879279
            CHANNELS 3 Zrotation Xrotation Yrotation
            JOINT HandRight
            {
              OFFSET -1.220104 -2.127588 -4.235324
              CHANNELS 3 Zrotation Xrotation Yrotation
              JOINT HandTipRight
              {
                OFFSET -1.192448 -1.191426 -4.201037
                CHANNELS 3 Zrotation Xrotation Yrotation
                End Site
                {
                  OFFSET 0 0 0
                }
              }
              JOINT ThumbRight
              {
                OFFSET -1.251603 3.856742 -2.979045
                CHANNELS 3 Zrotation Xrotation Yrotation
                End Site
                {
                  OFFSET 0 0 0
                }
              }
            }
          }
        }
      }
    }
  }
  JOINT HipLeft
  {
    OFFSET -1.177245 2.617690 -9.904904
    CHANNELS 3 Zrotation Xrotation Yrotation
    JOINT KneeLeft
    {
      OFFSET -3.957215 -35.269379 -2.316693
      CHANNELS 3 Zrotation Xrotation Yrotation
      JOINT AnkleLeft
      {
        OFFSET -7.656571 -36.521036 1.694285
        CHANNELS 3 Zrotation Xrotation Yrotation
        JOINT FootLeft
        {
          OFFSET 8.826025 -2.456252 -5.617737
          CHANNELS 3 Zrotation Xrotation Yrotation
          End Site
          {
            OFFSET 0 0 0
          }
        }
      }
    }
  }
  JOINT HipRight
  {
    OFFSET 3.226897 -0.688901 2.895455
    CHANNELS 3 Zrotation Xrotation Yrotation
    JOINT KneeRight
    {
      OFFSET 1.320330 -31.652199 5.914429
      CHANNELS 3 Zrotation Xrotation Yrotation
      JOINT AnkleRight
      {
        OFFSET -12.702811 -37.050618 2.531792
        CHANNELS 3 Zrotation Xrotation Yrotation
        JOINT FootRight
        {
          OFFSET 2.988789 -7.926698 -2.503059
          CHANNELS 3 Zrotation Xrotation Yrotation
          End Site
          {
            OFFSET 0 0 0
          }
        }
      }
    }
  }
}
MOTION
Frames: 6
Frame Time: 0.033333
-91.143545 77.362539 309.732896 0.000000 0.000000 -71.013507 -0.000000 -0.000000 71.013507 -0.000000 0.000000 0.000000 -0.000000 0.000000 0.000000 0.000000 0.000000 0.000000 -0.000000 0.000000 0.000000 -0.000000 0.000000 0.000000 -0.000000 0.000000 0.000000 -0.000000 0.000000 0.000000 0.000000 0.000000 0.000000 0.000000 0.000000 0.000000 -0.000000 0.000000 0.000000 -0.000000 0.000000 0.000000 -0.000000 0.000000 0.000000 -0.000000 0.000000 0.000000 0.000000 0.000000 0.000000 0.000000 0.000000 0.000000 -0.000000 -0.000000 71.013507 -0.000000 0.000000 0.000000 -0.000000 0.000000 0.000000 0.000000 0.000000 0.000000 -0.000000 -0.000000 71.013507 -0.000000 0.000000 0.000000 -0.000000 0.000000 0.000000 0.000000 0.000000 0.000000
-91.164865 77.382454 309.666280 0.082116 0.016354 -71.299873 -0.010838 -0.083025 71.299853 -0.000000 0.000000 0.000000 -0.000000 0.000000 0.000000 0.000000 0.000000 0.000000 -0.000000 0.000000 0.000000 0.806840 -0.792609 -0.581934 6.557953 -5.275782 -2.005424 -3.028569 -0.388933 -4.105488 0.000000 0.000000 0.000000 0.000000 0.000000 0.000000 -0.000000 0.000000 0.000000 -0.000000 0.000000 0.000000 -0.000000 0.000000 0.000000 1.532582 -3.856505 -1.718295 0.000000 0.000000 0.000000 0.000000 0.000000 0.000000 -0.010838 -0.083025 71.299853 -0.000000 0.000000 0.000000 -0.000000 0.000000 0.000000 0.000000 0.000000 0.000000 -0.010838 -0.083025 71.299853 -0.000000 0.000000 0.000000 6.632373 6.874020 0.095619 0.000000 0.000000 0.000000
-91.184361 77.398724 309.606701 0.158910 0.031909 -71.540580 -0.020049 -0.160838 71.540507 -0.000000 0.000000 0.000000 -0.000000 0.000000 0.000000 0.000000 0.000000 0.000000 1.288061 -0.454444 -0.391118 0.162121 -0.941180 -0.609453 14.171593 -11.869893 -3.849689 -7.982166 0.186505 -6.622574 0.000000 0.000000 0.000000 0.000000 0.000000 0.000000 -0.000000 0.000000 0.000000 -0.000000 0.000000 0.000000 0.411419 0.520036 -1.111310 2.650071 -8.018940 -2.190310 0.000000 0.000000 0.000000 0.000000 0.000000 0.000000 -0.020049 -0.160838 71.540507 -0.000000 0.000000 0.000000 -0.000000 0.000000 0.000000 0.000000 0.000000 0.000000 0.792390 0.156530 71.616804 -0.557412 0.670882 -0.073003 11.756804 12.494817 -0.267560 0.000000 0.000000 0.000000
-91.202031 77.411348 309.554159 0.230364 0.046664 -71.736977 -0.027879 -0.233383 71.736826 -0.000000 0.000000 0.000000 -0.000000 0.000000 0.000000 0.000000 0.000000 0.000000 1.760486 -0.619359 -0.533271 0.212973 -1.237282 -0.763757 21.233572 -18.274376 -4.991409 -13.317381 1.016392 -7.581182 0.000000 0.000000 0.000000 0.000000 0.000000 0.000000 -0.000000 0.000000 0.000000 -0.000000 0.000000 0.000000 0.531375 0.868485 -1.540644 3.762629 -11.371029 -3.086232 0.000000 0.000000 0.000000 0.000000 0.000000 0.000000 -0.027879 -0.233383 71.736826 -0.000000 0.000000 0.000000 -0.000000 0.000000 0.000000 0.000000 0.000000 0.000000 1.125398 0.218014 71.844631 -0.788340 0.955184 -0.101079 15.112694 16.624531 -0.646157 0.000000 0.000000 0.000000
-91.217876 77.420328 309.508653 0.296462 0.060613 -71.890139 -0.034542 -0.300616 71.889892 -0.000000 0.000000 0.000000 -0.000000 0.000000 0.000000 0.000000 0.000000 0.000000 2.123968 -0.743396 -0.642734 0.287059 -1.461272 -0.854865 25.678289 -22.481000 -5.562028 -16.834481 1.047087 -8.083654 0.000000 0.000000 0.000000 0.000000 0.000000 0.000000 -0.000000 0.000000 0.000000 0.171847 -0.451883 -0.774264 0.398129 1.733611 -1.111937 4.522891 -13.650969 -3.677173 0.000000 0.000000 0.000000 0.000000 0.000000 0.000000 -0.034542 -0.300616 71.889892 -0.000000 0.000000 0.000000 -0.000000 0.000000 0.000000 0.000000 0.000000 0.000000 1.416543 0.266520 72.024842 -1.511017 1.968700 -0.406582 16.936320 18.639459 -0.161922 0.000000 0.000000 0.000000
-91.231896 77.425662 309.470184 0.357189 0.073756 -72.000879 -0.040228 -0.362499 72.000522 -0.000000 0.000000 0.000000 -0.000000 0.000000 0.000000 0.000000 0.000000 0.000000 2.381463 -0.826942 -0.721054 0.403582 -1.631226 -0.896506 25.876413 -23.061432 -6.107057 -16.926373 -0.356078 -9.384723 0.000000 0.000000 0.000000 0.000000 0.000000 0.000000 -0.000000 0.000000 0.000000 0.229969 -0.442476 -0.896544 0.332436 2.190615 -1.243148 4.813537 -14.505476 -3.874418 0.000000 0.000000 0.000000 0.000000 0.000000 0.000000 -0.040228 -0.362499 72.000522 -0.000000 0.000000 0.000000 -0.000000 0.000000 0.000000 0.000000 0.000000 0.000000 1.665979 0.300990 72.158301 -1.765026 2.307047 -0.467452 16.510565 19.777219 0.407162 0.000000 0.000000 0.000000
